<svg width="24" height="24" viewBox="0 0 24 24" fill="none" xmlns="http://www.w3.org/2000/svg">
<path d="M23.9886 12.2245C23.9886 11.2413 23.907 10.5238 23.7303 9.77966H12.2391V14.2176H18.9842C18.8482 15.3205 18.1139 16.9815 16.482 18.0976L16.4591 18.2462L20.0924 20.9964L20.3441 21.0209C22.6559 18.9347 23.9886 15.8653 23.9886 12.2245Z" fill="#4285F4"/>
<path d="M12.2391 23.9176C15.5436 23.9176 18.3178 22.8545 20.3441 21.0209L16.482 18.0976C15.4485 18.8018 14.0614 19.2934 12.2391 19.2934C9.0026 19.2934 6.25564 17.2074 5.27642 14.324L5.13289 14.3359L1.35495 17.1927L1.30554 17.3269C3.31817 21.2334 7.45226 23.9176 12.2391 23.9176Z" fill="#34A853"/>
<path d="M5.27634 14.324C5.01797 13.5799 4.86844 12.7826 4.86844 11.9588C4.86844 11.1349 5.01797 10.3377 5.26275 9.5936L5.25591 9.43513L1.43062 6.53241L1.30547 6.59058C0.475969 8.21168 0 10.0321 0 11.9588C0 13.8855 0.475969 15.7058 1.30547 17.3269L5.27634 14.324Z" fill="#FBBC05"/>
<path d="M12.2391 4.62403C14.5373 4.62403 16.0876 5.59402 16.9715 6.40461L20.4257 3.10928C18.3043 1.1826 15.5436 0 12.2391 0C7.45226 0 3.31817 2.68406 1.30554 6.59056L5.26282 9.59359C6.25564 6.7102 9.0026 4.62403 12.2391 4.62403Z" fill="#EB4335"/>
</svg>
