<svg width="20" height="20" viewBox="0 0 22 24" fill="none" xmlns="http://www.w3.org/2000/svg">
<path fill-rule="evenodd" clip-rule="evenodd" d="M4.07407 13.7101C1.73963 13.1576 0 11.0578 0 8.55555C0 6.05326 1.73963 3.95348 4.07407 3.40103V3.25926C4.07407 2.61095 4.33161 1.9892 4.79004 1.53077C5.24846 1.07235 5.87021 0.814812 6.51852 0.814812H16.0201C16.7086 0.814812 17.3653 1.1057 17.829 1.61496L21.3644 5.50407C21.7734 5.95404 22 6.5403 22 7.14837V21.1852C22 21.8338 21.7425 22.4555 21.2838 22.9134C21.0569 23.1406 20.7875 23.3207 20.491 23.4436C20.1944 23.5665 19.8766 23.6297 19.5556 23.6296H6.51852C6.19751 23.6297 5.87963 23.5665 5.58308 23.4436C5.28653 23.3207 5.01712 23.1406 4.7903 22.9134C4.56315 22.6866 4.38297 22.4172 4.26007 22.1206C4.13717 21.8241 4.07396 21.5062 4.07407 21.1852V13.7101ZM4.48148 4.98014C3.67176 5.1656 2.94885 5.62017 2.43086 6.26958C1.91288 6.91899 1.63042 7.72486 1.62963 8.55555C1.63011 9.31382 1.86536 10.0533 2.30305 10.6725C2.74074 11.2917 3.35941 11.7602 4.07407 12.0136C4.5962 12.1982 5.15343 12.2617 5.7037 12.1994C6.45985 12.1144 7.17087 11.7964 7.73842 11.2896C8.30597 10.7828 8.70199 10.1121 8.8717 9.37037H6.11111C5.67891 9.37037 5.2644 9.19867 4.95879 8.89306C4.65317 8.58744 4.48148 8.17294 4.48148 7.74074V4.98014ZM8.8717 7.74074C8.71739 7.06771 8.37657 6.45178 7.88832 5.96353C7.40007 5.47527 6.78414 5.13446 6.11111 4.98014V7.74074H8.8717ZM14.6667 2.44444H6.51852C6.30242 2.44444 6.09516 2.53029 5.94236 2.6831C5.78955 2.8359 5.7037 3.04315 5.7037 3.25926V3.27474C8.43659 3.48333 10.5926 5.7697 10.5926 8.55555C10.5926 11.3414 8.43659 13.6278 5.7037 13.8364V21.1852C5.70338 21.2923 5.72424 21.3984 5.76507 21.4974C5.8059 21.5964 5.86591 21.6863 5.94164 21.7621C6.01736 21.8378 6.10732 21.8978 6.20632 21.9386C6.30532 21.9795 6.41143 22.0003 6.51852 22H19.5556C19.6626 22.0003 19.7688 21.9795 19.8678 21.9386C19.9668 21.8978 20.0567 21.8378 20.1324 21.7621C20.2082 21.6863 20.2682 21.5964 20.309 21.4974C20.3498 21.3984 20.3707 21.2923 20.3704 21.1852V8.14814H17.1111C16.4628 8.14814 15.8411 7.89061 15.3826 7.43218C14.9242 6.97376 14.6667 6.35201 14.6667 5.7037V2.44444ZM20.0844 6.51852L16.623 2.71089C16.5335 2.6126 16.4213 2.53765 16.2963 2.49252V5.7037C16.2963 5.9198 16.3821 6.12705 16.5349 6.27986C16.6878 6.43267 16.895 6.51852 17.1111 6.51852H20.0844Z" fill="#1AA7FF"/>
</svg>
