<svg width="24" height="29" viewBox="0 0 24 29" fill="none" xmlns="http://www.w3.org/2000/svg">
<path fill-rule="evenodd" clip-rule="evenodd" d="M17.1429 23.6885C16.5642 23.6885 16.0093 23.9183 15.6001 24.3275C15.1909 24.7367 14.9611 25.2916 14.9611 25.8703C14.9611 26.449 15.1909 27.0039 15.6001 27.4131C16.0093 27.8223 16.5642 28.0521 17.1429 28.0521C17.7215 28.0521 18.2765 27.8223 18.6857 27.4131C19.0949 27.0039 19.3247 26.449 19.3247 25.8703C19.3247 25.2916 19.0949 24.7367 18.6857 24.3275C18.2765 23.9183 17.7215 23.6885 17.1429 23.6885Z" fill="#486472"/>
<path d="M17.1429 8.72733C17.3909 8.72733 17.6287 8.82584 17.8041 9.0012C17.9794 9.17656 18.0779 9.4144 18.0779 9.6624V13.7144H20.8831C22.0888 13.7144 23.065 14.6906 23.065 15.8962V25.8703C23.065 26.1183 22.9665 26.3561 22.7911 26.5315C22.6157 26.7068 22.3779 26.8054 22.1299 26.8054H20.1164C20.2878 26.2616 20.3068 25.6811 20.1713 25.1273C20.0357 24.5735 19.7509 24.0674 19.3477 23.6642C18.9445 23.261 18.4385 22.9762 17.8846 22.8406C17.3308 22.7051 16.7503 22.7241 16.2065 22.8955V9.6624C16.2065 9.5395 16.2308 9.4178 16.2778 9.30427C16.3249 9.19074 16.3939 9.08761 16.4809 9.00076C16.5678 8.91392 16.671 8.84506 16.7846 8.79815C16.8982 8.75123 17.02 8.72716 17.1429 8.72733Z" fill="#607D8B"/>
<path fill-rule="evenodd" clip-rule="evenodd" d="M6.5454 0C4.23265 0 2.49342 2.01975 2.49342 4.33499V7.16887C2.49342 7.68503 2.91233 8.10395 3.42849 8.10395H9.6623C9.91029 8.10395 10.1481 8.00543 10.3235 7.83007C10.4989 7.65471 10.5974 7.41687 10.5974 7.16887V4.33499C10.5974 2.01975 8.85814 0 6.5454 0ZM3.52449 8.72733C3.31556 8.72735 3.11265 8.79735 2.94814 8.92615C2.78363 9.05496 2.667 9.23515 2.61685 9.43798L0.0273295 19.9108C-0.00672309 20.0485 -0.00898408 20.1922 0.020718 20.3309C0.0504202 20.4697 0.111306 20.5998 0.198765 20.7116C0.286223 20.8233 0.39796 20.9136 0.525512 20.9758C0.653064 21.0379 0.793086 21.0702 0.934971 21.0703H2.80885L4.3486 26.738C4.40229 26.9363 4.51979 27.1114 4.68294 27.2363C4.84609 27.3611 5.04582 27.4288 5.25126 27.4287H7.83953C8.04255 27.4288 8.24006 27.3627 8.40223 27.2406C8.5644 27.1185 8.68242 26.9469 8.73845 26.7517L10.3667 21.0703H12.1558C12.2971 21.0703 12.4366 21.0384 12.5638 20.9769C12.6909 20.9153 12.8025 20.8257 12.8901 20.7149C12.9777 20.604 13.039 20.4747 13.0695 20.3367C13.0999 20.1988 13.0987 20.0557 13.066 19.9183L10.5724 9.44546C10.5236 9.24083 10.4072 9.05863 10.2421 8.92832C10.0769 8.79801 9.87267 8.7272 9.6623 8.72733H3.52449Z" fill="#2196F3"/>
</svg>
