<svg width="20" height="22" viewBox="0 0 24 24" fill="none" xmlns="http://www.w3.org/2000/svg">
<path d="M4.7187 6.19172C4.7187 2.77153 7.50203 0 10.9104 0C14.3188 0 17.1021 2.77153 17.1021 6.19172C17.1021 7.14701 16.8898 8.05513 16.4889 8.85711C16.3945 8.84531 16.3002 8.84531 16.2058 8.84531C14.4543 8.85043 12.7616 9.47737 11.4293 10.6144C10.8514 11.0979 10.3679 11.664 9.96692 12.3009C8.81113 12.1358 7.74969 11.6286 6.90054 10.8974C6.21558 10.3197 5.66533 9.59915 5.28842 8.78623C4.9115 7.97332 4.71705 7.08776 4.7187 6.19172ZM9.8596 19.9432C9.36624 19.1094 9.04339 18.1858 8.90977 17.2262C8.77615 16.2665 8.83442 15.2899 9.08121 14.353C9.11659 14.2233 9.15197 14.0935 9.19915 13.9638C7.92179 13.6868 6.73393 13.0949 5.74358 12.2419C5.49591 12.0414 5.27183 11.8173 5.04775 11.5815C4.17501 12.0178 3.38483 12.5839 2.6772 13.2916C1.82631 14.1387 1.15163 15.146 0.692132 16.2552C0.232629 17.3645 -0.00260056 18.5538 2.16843e-05 19.7545C2.16843e-05 21.5472 1.45065 22.9978 3.2433 22.9978H13.3505C11.8822 22.3919 10.655 21.3181 9.8596 19.9432Z" fill="#2196F3"/>
<path d="M23.1262 23.1205C23.0442 23.2028 22.9468 23.2681 22.8395 23.3127C22.7322 23.3573 22.6172 23.3802 22.5011 23.3802C22.3849 23.3802 22.2699 23.3573 22.1627 23.3127C22.0554 23.2681 21.958 23.2028 21.876 23.1205L19.8723 21.1168C19.726 21.2217 19.5927 21.3409 19.4347 21.434C18.8004 21.8078 18.0981 22.052 17.3687 22.1524C16.6393 22.2528 15.8972 22.2075 15.1854 22.019C14.4732 21.8346 13.8046 21.5107 13.2183 21.0661C12.632 20.6216 12.1398 20.0652 11.77 19.4291C11.3965 18.7946 11.1524 18.0924 11.052 17.363C10.9516 16.6336 10.9968 15.8916 11.185 15.1798C11.3694 14.4675 11.6933 13.7989 12.1379 13.2127C12.5824 12.6264 13.1388 12.1341 13.7749 11.7643C15.0577 11.016 16.5849 10.8068 18.0217 11.1826C19.4584 11.5585 20.6876 12.4886 21.4396 13.7693C21.9911 14.7064 22.2563 15.7844 22.2024 16.8704C22.1486 17.9564 21.7781 19.0029 21.1365 19.8808L23.1273 21.8716C23.2095 21.9537 23.2747 22.0513 23.3192 22.1586C23.3637 22.266 23.3866 22.381 23.3866 22.4972C23.3866 22.6134 23.3637 22.7285 23.3192 22.8359C23.2747 22.9432 23.2095 23.0408 23.1273 23.1229L23.1262 23.1205ZM20.3122 17.5692C20.5044 16.8356 20.4748 16.0614 20.2269 15.3446C19.979 14.6279 19.524 14.0007 18.9196 13.5426C18.3152 13.0845 17.5884 12.8161 16.8313 12.7712C16.0742 12.7263 15.3208 12.907 14.6665 13.2904C13.7831 13.807 13.1534 14.6373 12.8939 15.6268C12.6344 16.6163 12.7771 17.6506 13.2949 18.5339C13.8126 19.4173 14.6417 20.0471 15.6312 20.3065C16.6243 20.5648 17.655 20.4233 18.5384 19.9056C19.4217 19.3878 20.0527 18.5587 20.3122 17.5692Z" fill="#607D8B"/>
</svg>
