<svg width="18" height="23" viewBox="0 0 18 23" fill="none" xmlns="http://www.w3.org/2000/svg">
<path d="M16.0049 1.24382H13.5078C12.8488 0.482764 11.8777 0 10.7956 0H7.20443C6.12231 0 5.15119 0.482764 4.49224 1.24382H1.99507C0.89499 1.24382 0 2.14058 0 3.24279V20.7005C0 21.8027 0.89499 22.6995 1.99507 22.6995H16.0049C17.105 22.6995 18 21.8027 18 20.7005V3.24279C18 2.14054 17.105 1.24382 16.0049 1.24382ZM7.20443 1.33266H10.7956C11.8231 1.33266 12.6765 2.02052 12.9569 2.93183H5.0431C5.32303 2.02212 6.17529 1.33266 7.20443 1.33266ZM16.67 20.7005C16.67 21.0679 16.3716 21.3668 16.0049 21.3668H1.99507C1.62838 21.3668 1.33005 21.0679 1.33005 20.7005V3.24279C1.33005 2.87539 1.62838 2.57648 1.99507 2.57648H3.76164C3.66325 2.90813 3.61329 3.25225 3.6133 3.59818C3.6133 3.96616 3.91105 4.26449 4.27833 4.26449H13.7217C14.0889 4.26449 14.3867 3.96616 14.3867 3.59818C14.3867 3.25225 14.3367 2.90813 14.2384 2.57648H16.0049C16.3716 2.57648 16.67 2.87539 16.67 3.24279V20.7005Z" fill="#2196F3"/>
<path d="M5.72188 13.2404L4.74385 14.2203L4.50471 13.9807C4.24504 13.7204 3.82395 13.7204 3.56423 13.9807C3.30452 14.2409 3.30452 14.6628 3.56423 14.923L4.27359 15.6337C4.53326 15.8939 4.95435 15.894 5.21407 15.6337L6.66232 14.1826C6.92203 13.9224 6.92203 13.5005 6.66232 13.2403C6.40265 12.9801 5.98155 12.9801 5.72188 13.2404ZM13.9212 13.7708H8.55666C8.18939 13.7708 7.89163 14.0691 7.89163 14.4371C7.89163 14.805 8.18939 15.1034 8.55666 15.1034H13.9212C14.2885 15.1034 14.5862 14.805 14.5862 14.4371C14.5862 14.0691 14.2885 13.7708 13.9212 13.7708ZM5.72188 17.0606L4.74385 18.0405L4.50471 17.8009C4.24504 17.5407 3.82395 17.5407 3.56423 17.8009C3.30452 18.0611 3.30452 18.483 3.56423 18.7432L4.27359 19.454C4.53326 19.7142 4.95435 19.7142 5.21407 19.454L6.66232 18.0029C6.92203 17.7427 6.92203 17.3208 6.66232 17.0606C6.40265 16.8004 5.98155 16.8004 5.72188 17.0606ZM13.9212 17.591H8.55666C8.18939 17.591 7.89163 17.8893 7.89163 18.2573C7.89163 18.6253 8.18939 18.9236 8.55666 18.9236H13.9212C14.2885 18.9236 14.5862 18.6253 14.5862 18.2573C14.5862 17.8893 14.2885 17.591 13.9212 17.591ZM10.2683 10.6881L12.3251 8.62728V8.70668C12.3251 9.07466 12.6229 9.37299 12.9902 9.37299C13.3574 9.37299 13.6552 9.07466 13.6552 8.70668C13.6552 6.82187 13.6583 6.99735 13.6476 6.92291C13.6005 6.59691 13.3216 6.35223 12.9899 6.35232H11.3054C10.9382 6.35232 10.6404 6.65065 10.6404 7.01863C10.6404 7.38661 10.9382 7.68494 11.3054 7.68494H11.3847L9.79804 9.27466L7.7855 7.25821C7.52583 6.99797 7.10473 6.99797 6.84502 7.25821L4.45093 9.657C4.19122 9.9172 4.19122 10.3391 4.45093 10.5993C4.7106 10.8595 5.13169 10.8595 5.39141 10.5993L7.31528 8.6717L9.32782 10.6881C9.58745 10.9483 10.0086 10.9484 10.2683 10.6881Z" fill="#607D8B"/>
</svg>
