<svg width="23" height="23" viewBox="0 0 23 23" fill="none" xmlns="http://www.w3.org/2000/svg">
<path d="M10.4836 17.0087C10.7643 17.2894 11.1321 17.4297 11.5 17.4297C11.8678 17.4297 12.2358 17.2894 12.5164 17.0087L17.6096 11.9156C18.171 11.3542 18.171 10.444 17.6096 9.88263C17.0482 9.32124 16.1381 9.32124 15.5767 9.88263L12.9375 12.5218V1.4375C12.9375 0.643596 12.2939 0 11.5 0C10.7061 0 10.0625 0.643596 10.0625 1.4375V12.5218L7.42334 9.88263C6.86195 9.32124 5.95179 9.32124 5.3904 9.88263C4.82901 10.444 4.82901 11.3542 5.3904 11.9156L10.4836 17.0087Z" fill="#2196F3"/>
<path d="M23 21.4375C23 22.2314 22.3564 22.875 21.5625 22.875H1.4375C0.643596 22.875 0 22.2314 0 21.4375C0 20.6436 0.643596 20 1.4375 20H21.5625C22.3564 20 23 20.6436 23 21.4375Z" fill="#607D8B"/>
</svg>
