<svg width="163" height="83" viewBox="0 0 163 83" fill="none" xmlns="http://www.w3.org/2000/svg">
<g clip-path="url(#clip0_67_928)">
<path d="M72.934 34.8432C72.6054 34.5945 72.2286 34.6997 71.8807 34.6997C68.4988 34.6901 65.1168 34.671 61.7349 34.6997C61.0875 34.6997 60.8942 34.4989 60.9039 33.8867C60.9329 32.1364 60.8846 30.3862 60.9329 28.6359C61.0295 25.2214 63.6868 22.7442 67.1557 22.7442C76.5092 22.7442 85.8626 22.7537 95.2161 22.7442C98.7044 22.7442 101.217 20.0088 100.656 16.8812C100.25 14.5762 98.1633 12.7207 95.8249 12.6824C93.2063 12.6346 90.5877 12.6824 87.9691 12.6537C87.2251 12.6442 87.1091 13.0076 87.1188 13.6006C87.1381 15.5326 87.1091 17.4646 87.1478 19.3871C87.1478 19.894 87.0318 20.0853 86.5004 20.0853C83.0605 20.0661 79.6109 20.0757 76.171 20.0853C75.2627 20.0853 75.224 19.3775 75.0887 18.7845C75.0018 18.4115 75.0598 18.0002 75.0598 17.6081C75.0598 12.3955 75.0598 7.17331 75.0598 1.96071C75.0598 0.726898 75.0598 0.726898 76.3449 0.726898C82.7126 0.726898 89.0803 0.698204 95.448 0.736462C102.212 0.784284 107.401 3.75882 110.667 9.56442C113.855 15.2266 113.566 21.0322 110.251 26.6178C108.812 29.0471 106.773 30.96 104.289 32.3564C103.623 32.7294 103.526 33.0259 103.913 33.6763C106.966 38.7837 109.981 43.9102 113.015 49.0368C113.14 49.2472 113.247 49.4576 113.363 49.668C113.16 49.9836 112.851 49.8593 112.609 49.8593C108.705 49.8689 104.811 49.8593 100.907 49.8784C100.318 49.8784 99.9799 49.6967 99.6803 49.1802C97.0037 44.6276 94.2789 40.094 91.6023 35.5318C91.2641 34.9484 90.8969 34.6041 90.1722 34.6806C89.09 34.7953 87.9884 34.4989 86.9159 34.8527C86.5487 34.6614 86.1525 34.6901 85.7564 34.6997C81.7463 34.6997 77.7363 34.7188 73.7263 34.7188C73.4461 34.7188 73.1852 34.7188 72.9243 34.8432H72.934Z" fill="#1AA7FF"/>
<path d="M72.934 34.8432C73.1852 34.7188 73.4558 34.7188 73.736 34.7188C77.746 34.7188 81.756 34.6997 85.766 34.6997C86.1622 34.6997 86.5584 34.6614 86.9256 34.8527C83.2731 43.4129 76.8474 48.7116 67.6388 50.414C56.749 52.4321 46.149 47.3917 40.6896 37.9133C33.288 25.0492 38.757 8.38799 52.4008 2.28589C58.6235 -0.497352 64.9913 -0.669512 71.4653 1.35814C72.1416 1.56856 72.3929 1.87462 72.3832 2.63021C72.3349 6.83855 72.3639 11.0565 72.3639 15.3796C71.2817 14.6814 70.3637 13.9258 69.2815 13.3997C63.996 10.8078 57.9375 11.6399 53.6956 15.5996C49.5309 19.4827 48.2458 25.4987 50.4779 30.7113C52.7293 35.9909 58.0245 39.2715 63.8511 38.9654C67.4166 38.7741 70.4217 37.3299 72.9436 34.8527L72.934 34.8432Z" fill="#024063"/>
<path fill-rule="evenodd" clip-rule="evenodd" d="M60.2565 19.7792C59.4255 19.7792 58.7491 20.4583 58.7491 21.2808V26.7804C58.7491 27.3255 59.2033 27.7751 59.7541 27.7751H60.2565V34.2406C60.2565 34.518 60.4884 34.738 60.759 34.738H63.7834C64.0636 34.738 64.2859 34.5084 64.2859 34.2406V32.672H62.7302C62.2954 32.672 61.9475 32.3182 61.9475 31.8973V28.6359C61.9475 28.2055 62.305 27.8611 62.7302 27.8611H64.2569C64.2569 27.5551 64.2182 27.316 64.4598 27.0769C64.5854 26.9525 64.7497 26.876 64.9429 26.876C65.1845 26.876 65.1845 27.249 64.9429 27.249C64.7787 27.249 64.6337 27.3829 64.6337 27.5551V27.7751H64.7883C65.3391 27.7751 65.7932 27.3255 65.7932 26.7804V21.2808C65.7932 20.4583 65.1169 19.7888 64.2859 19.7792H63.4742L62.8461 20.4009L62.2664 19.827L61.6866 20.4009L61.0585 19.7792H60.2469H60.2565ZM62.276 15.7813C63.252 15.7813 64.0443 16.5656 64.0443 17.5316C64.0443 18.4976 63.252 19.2819 62.276 19.2819C61.3001 19.2819 60.5078 18.4976 60.5078 17.5316C60.5078 16.5656 61.3001 15.7813 62.276 15.7813Z" fill="#024063"/>
<path d="M67.5325 28.2246H62.7398C62.5176 28.2246 62.3243 28.4063 62.3243 28.6358V31.8973C62.3243 32.1173 62.5079 32.3086 62.7398 32.3086H67.5325C67.7548 32.3086 67.948 32.1269 67.948 31.8973V28.6358C67.948 28.4159 67.7644 28.2246 67.5325 28.2246Z" fill="#024063"/>
<path d="M14.9385 63.1634L14.1945 63.2686L13.2669 59.6628C12.5229 59.4237 11.6629 59.3089 10.6773 59.3089C8.70609 59.3089 7.16972 60.0358 6.05851 61.4896C4.95696 62.9434 4.39653 64.9328 4.39653 67.4674C4.39653 70.002 4.9473 72.1826 6.05851 73.6651C7.16972 75.1476 8.72541 75.8841 10.7256 75.8841C11.1991 75.8841 11.7112 75.8458 12.262 75.7693V72.3261C12.262 71.8862 12.262 71.494 12.262 71.1401C12.262 70.7862 12.2523 70.4515 12.2426 70.155C12.2426 69.9254 12.1267 69.782 11.9141 69.7246L10.1168 69.2177L10.0782 68.5673C11.3247 68.596 12.6871 68.6056 14.1462 68.6056C15.6053 68.6056 16.9387 68.596 18.0209 68.5673L18.0982 69.2177L16.5232 69.6481C16.3106 69.7055 16.1947 69.8394 16.1754 70.0402C16.1754 70.3845 16.156 70.748 16.156 71.1019C16.156 71.4653 16.156 71.8575 16.156 72.2687V76.391L16.0594 76.4866C14.1655 76.917 12.3682 77.1275 10.658 77.1275C7.44994 77.1275 4.87 76.3145 2.9278 74.6981C0.975932 73.0721 0 70.8149 0 67.9074C0 64.8181 0.975932 62.4078 2.9278 60.6575C4.87966 58.9072 7.5369 58.0369 10.9092 58.0369C12.5325 58.0369 14.1269 58.2186 15.6922 58.5725L15.7888 58.6873L14.9385 63.1634Z" fill="#1AA7FF"/>
<path d="M29.5002 75.6067C28.2054 76.544 26.7946 77.0223 25.2679 77.0223C23.8378 77.0223 22.7653 76.6779 22.0406 75.9797C21.3159 75.2815 20.9583 74.306 20.9583 73.0339V70.2602C20.9583 68.3951 20.939 67.0179 20.91 66.1379L19.0161 65.6502L18.9388 65.1146C21.0936 64.7894 22.9972 64.4546 24.6495 64.1103L24.7944 64.2155C24.7461 65.3058 24.7171 66.6544 24.7171 68.2517V72.2783C24.7171 73.3113 24.92 74.0668 25.3355 74.5355C25.7414 75.0042 26.3211 75.2337 27.0748 75.2337C27.9155 75.2337 28.6788 75.052 29.3746 74.6981V69.1316C29.3746 67.9074 29.3552 66.9031 29.3262 66.1093L27.5386 65.6502L27.4613 65.1146C29.5485 64.7894 31.4134 64.4546 33.0464 64.1103L33.201 64.2155C33.143 65.3345 33.1044 66.7022 33.1044 68.3378C33.1044 71.5036 33.1044 73.4356 33.114 74.1338C33.114 74.4781 33.1527 74.765 33.1913 74.9755C33.2396 75.1859 33.3169 75.3485 33.4425 75.4633C33.5682 75.578 33.7518 75.6545 33.9933 75.7024C34.2349 75.7502 34.5827 75.7789 35.0272 75.7884L35.0949 76.3623C33.8291 76.8023 32.7372 77.0127 31.8192 77.0127C30.6404 77.0127 29.8674 76.544 29.4905 75.5972L29.5002 75.6067Z" fill="#1AA7FF"/>
<path d="M49.1831 75.7884C47.5501 76.611 45.8398 77.0222 44.0329 77.0222C41.8878 77.0222 40.1292 76.4962 38.7667 75.4441C37.4043 74.392 36.7279 72.8426 36.7279 70.7958C36.7279 68.749 37.385 67.2474 38.6894 66.0136C39.9939 64.7798 41.6655 64.1677 43.685 64.1677C45.4533 64.1677 46.8254 64.6363 47.7917 65.5832C48.758 66.5301 49.2411 67.8308 49.2411 69.495C49.2411 69.7437 49.2314 70.0115 49.2024 70.2793H40.7573C40.7573 72.0296 41.1921 73.2921 42.0617 74.0573C42.9314 74.8224 44.3518 75.205 46.3326 75.205C47.2892 75.205 48.2072 75.1189 49.0768 74.9563L49.1831 75.7789V75.7884ZM45.2214 69.0168V68.7012C45.2214 67.5152 45.0668 66.664 44.7673 66.1475C44.4677 65.631 43.9943 65.3728 43.3758 65.3728C42.6318 65.3728 42.0327 65.7267 41.5882 66.4344C41.1438 67.1422 40.8829 68.003 40.8152 69.0073H45.2311L45.2214 69.0168Z" fill="#1AA7FF"/>
<path d="M58.8651 65.6406C58.3143 65.5067 57.7153 65.4397 57.0679 65.4397C56.2659 65.4397 55.6088 65.5832 55.1063 65.8606C54.6039 66.1379 54.343 66.5396 54.343 67.0466C54.343 67.4387 54.4493 67.7448 54.6715 67.9552C54.8938 68.1656 55.2706 68.3665 55.8117 68.5482L57.9278 69.2846C59.184 69.715 60.1116 70.2315 60.6914 70.8341C61.2711 71.4366 61.561 72.1444 61.561 72.9574C61.561 74.239 61.0199 75.2337 59.928 75.9415C58.8361 76.6492 57.4157 77.0031 55.6378 77.0031C54.1594 77.0031 52.7003 76.7066 51.2799 76.1041C51.5795 74.9372 51.821 73.799 52.0239 72.7087L52.7003 72.6035L53.6473 75.4537C54.1884 75.6354 54.8551 75.7311 55.6668 75.7311C56.4301 75.7311 57.0582 75.5876 57.5317 75.3007C58.0051 75.0137 58.2467 74.612 58.2467 74.0955C58.2467 73.6651 58.1018 73.3113 57.8216 73.0148C57.5317 72.7183 56.9616 72.4313 56.1113 72.1444L54.4976 71.5992C53.4637 71.2453 52.6907 70.7767 52.1689 70.2028C51.6471 69.629 51.3862 68.9308 51.3862 68.1082C51.3862 66.8361 51.8887 65.8606 52.9032 65.1815C53.9178 64.5024 55.3093 64.1581 57.0872 64.1581C58.5463 64.1581 59.87 64.3685 61.0489 64.7989C60.788 65.9371 60.5561 67.0179 60.3725 68.0413L59.6478 68.1465L58.8555 65.6406H58.8651Z" fill="#1AA7FF"/>
<path d="M68.5665 66.0614C68.5182 68.7777 68.4892 71.0828 68.4892 72.9765C68.4892 73.8564 68.6245 74.4685 68.8951 74.8033C69.1656 75.1381 69.6874 75.3102 70.4701 75.3102C71.0692 75.3102 71.7166 75.272 72.4219 75.205L72.5282 75.9893C71.1271 76.6684 69.8227 77.0127 68.6052 77.0127C67.3877 77.0127 66.4214 76.7544 65.745 76.2475C65.0686 75.7406 64.7304 74.9659 64.7304 73.9425C64.7304 72.1253 64.7594 69.4855 64.8077 66.004L63.0201 65.5449L62.9042 64.8372L65.1073 64.6363L66.3634 61.5662C67.1074 61.4323 67.7935 61.3079 68.4119 61.1836L68.5955 61.2792C68.5665 62.3313 68.5568 63.4503 68.5568 64.6363H72.2577V66.0614H68.5568H68.5665Z" fill="#1AA7FF"/>
<path d="M79.0118 72.6322C79.0118 73.1582 79.0118 73.6269 79.0118 74.0477C79.0118 74.4685 79.0215 74.8416 79.0311 75.1859C79.0311 75.4537 79.1567 75.6258 79.379 75.6928L80.8477 76.1232L80.8864 76.6875C79.8428 76.6588 78.7896 76.6492 77.746 76.6492C76.7024 76.6492 75.5912 76.6588 74.4703 76.6875L74.422 76.1232L76.0453 75.6354C76.2676 75.578 76.3835 75.4345 76.4029 75.2337C76.4029 74.8894 76.4222 74.4972 76.4222 74.0668C76.4222 73.6364 76.4222 73.1582 76.4222 72.6322V62.0252C76.4222 61.5853 76.4222 61.1836 76.4222 60.8201C76.4222 60.4662 76.4125 60.141 76.4029 59.8541C76.4029 59.6246 76.2869 59.4811 76.084 59.4141L74.4413 58.9072L74.4124 58.3429C75.5526 58.3812 76.6541 58.3908 77.746 58.3908C77.9586 58.3908 78.2291 58.3908 78.5577 58.3716C78.8862 58.3525 79.292 58.3429 79.7558 58.3238C80.239 58.3047 80.6351 58.2951 80.954 58.2855C81.2729 58.2855 81.5241 58.276 81.7173 58.276C83.7465 58.276 85.2732 58.649 86.2878 59.4046C87.3024 60.1506 87.8145 61.2505 87.8145 62.6852C87.8145 63.9859 87.4667 65.038 86.7709 65.8414C86.0752 66.6448 85.0123 67.2665 83.5822 67.7065C84.1427 68.5482 84.6645 69.3516 85.1379 70.1359C85.6114 70.9201 86.0462 71.6279 86.4617 72.2783C86.8676 72.9287 87.2444 73.5025 87.5826 73.9999C87.9208 74.4972 88.2397 74.8894 88.5296 75.1763C88.6745 75.3293 88.8291 75.4537 88.974 75.5589C89.119 75.6641 89.2832 75.7597 89.4475 75.8267C89.6118 75.8936 89.7857 75.9606 89.9596 76.0084C90.1432 76.0562 90.3365 76.1136 90.5587 76.1614L90.5974 76.7353C89.9596 76.8118 89.4282 76.8501 89.003 76.8501C88.6455 76.8501 88.3266 76.8501 88.0464 76.8214C87.7759 76.8023 87.5246 76.7736 87.3121 76.7162C87.0995 76.6684 86.9062 76.6014 86.7323 76.5153C86.5584 76.4292 86.3844 76.324 86.2202 76.1997C85.853 75.9319 85.4955 75.5398 85.1379 75.0328C84.7804 74.5259 84.4229 73.9425 84.0364 73.3017C83.6596 72.6609 83.2634 71.9722 82.8479 71.2453C82.442 70.5184 82.0072 69.8011 81.5531 69.1029C81.4178 68.8925 81.3019 68.7299 81.2149 68.6056C81.1183 68.4812 81.0216 68.3856 80.9057 68.3186C80.7897 68.2517 80.6641 68.2038 80.5192 68.1752C80.3742 68.1465 80.181 68.1273 79.9491 68.1273L79.0215 68.0986V72.6322H79.0118ZM79.0118 67.1135C79.5529 67.1422 80.0457 67.1518 80.4998 67.1518C82.0266 67.1518 83.1378 66.8361 83.8528 66.1953C84.5582 65.5545 84.9157 64.5502 84.9157 63.1825C84.9157 61.8148 84.5775 60.8871 83.9011 60.2749C83.2247 59.6628 82.1618 59.3568 80.7221 59.3568C80.4709 59.3568 80.21 59.3568 79.9298 59.3855C79.6495 59.4046 79.3403 59.4333 79.0215 59.462V67.1135H79.0118Z" fill="#024063"/>
<path d="M101.845 75.7215C101.101 76.1806 100.328 76.5153 99.5354 76.7162C98.7431 76.917 98.0087 77.0127 97.3323 77.0127C95.3901 77.0127 93.8247 76.4675 92.6362 75.3676C91.4381 74.2773 90.8486 72.7565 90.8486 70.8149C90.8486 68.8734 91.4091 67.2952 92.5203 66.071C93.6315 64.8372 95.1196 64.2251 96.9845 64.2251C98.5498 64.2251 99.7576 64.6841 100.627 65.6023C101.497 66.5205 101.932 67.7926 101.932 69.4185C101.932 69.6672 101.922 69.9159 101.893 70.1646H93.5542C93.5542 72.0392 93.9987 73.3782 94.8876 74.1816C95.7766 74.985 97.168 75.3867 99.0619 75.3867C99.9122 75.3867 100.811 75.3102 101.767 75.1476L101.845 75.7119V75.7215ZM99.2165 69.0742V68.6821C99.2165 67.4483 99.0233 66.5588 98.6271 66.0232C98.2309 65.4876 97.6512 65.2293 96.8782 65.2293C95.8539 65.2293 95.0712 65.6023 94.5205 66.3579C93.9793 67.1039 93.6701 68.0126 93.6025 69.0742H99.2165Z" fill="#024063"/>
<path d="M103.333 65.5832L103.265 65.1432C104.744 64.8659 106.145 64.5598 107.469 64.2251L107.604 64.3207V65.6023C108.957 64.6841 110.271 64.2251 111.546 64.2251C113.199 64.2251 114.503 64.7702 115.479 65.851C116.455 66.9318 116.938 68.3473 116.938 70.0785C116.938 72.2113 116.31 73.9042 115.063 75.1476C113.817 76.391 112.039 77.0127 109.739 77.0127C109.053 77.0127 108.348 76.9457 107.613 76.8118V79.6716C107.613 80.5419 107.613 81.1541 107.642 81.4984C107.662 81.7566 107.778 81.9192 108 81.967L109.73 82.4548L109.768 82.9904C108.396 82.9617 107.275 82.9522 106.406 82.9522C105.536 82.9522 104.512 82.9617 103.333 82.9904L103.285 82.4548L104.802 82.0149C105.014 81.9575 105.12 81.814 105.13 81.6132C105.149 80.9723 105.159 80.0159 105.159 78.7247V73.4069C105.159 69.5429 105.14 67.1039 105.111 66.0805L103.352 65.5832H103.333ZM107.604 75.6354C108.367 75.798 109.111 75.8841 109.817 75.8841C111.276 75.8841 112.377 75.4345 113.112 74.5259C113.846 73.6173 114.223 72.3165 114.223 70.6332C114.223 69.036 113.875 67.8308 113.17 67.0274C112.464 66.224 111.459 65.8127 110.135 65.8127C109.188 65.8127 108.338 66.004 107.604 66.3866V75.645V75.6354Z" fill="#024063"/>
<path d="M131.49 70.3558C131.49 72.3452 130.881 73.9521 129.673 75.1763C128.466 76.4005 126.919 77.0127 125.055 77.0127C123.19 77.0127 121.75 76.4388 120.629 75.2815C119.508 74.1242 118.938 72.613 118.938 70.748C118.938 68.8829 119.528 67.2665 120.706 66.0423C121.885 64.818 123.441 64.2155 125.383 64.2155C127.219 64.2155 128.697 64.7798 129.809 65.8988C130.93 67.0179 131.49 68.5003 131.49 70.3558ZM121.644 70.4706C121.644 72.0966 121.953 73.426 122.562 74.4494C123.18 75.4728 124.088 75.9893 125.296 75.9893C126.427 75.9893 127.287 75.5398 127.886 74.6311C128.475 73.7321 128.775 72.3931 128.775 70.6236C128.775 68.9594 128.466 67.6491 127.837 66.6831C127.219 65.7267 126.311 65.2484 125.122 65.2484C124.001 65.2484 123.141 65.6788 122.533 66.5396C121.924 67.4004 121.634 68.7108 121.634 70.461L121.644 70.4706Z" fill="#024063"/>
<path d="M133.297 65.1432C134.766 64.8659 136.167 64.5598 137.5 64.2251L137.635 64.3207V65.851C139.268 64.7702 140.863 64.2251 142.428 64.2251L142.496 64.3016C142.245 65.6023 141.993 66.9509 141.742 68.3377L141.211 68.4334C140.959 67.6969 140.727 67.0944 140.496 66.6448C140.264 66.1953 139.906 65.9753 139.413 65.9753C138.921 65.9753 138.341 66.1953 137.626 66.6257V72.2879C137.626 73.646 137.626 74.6216 137.655 75.205C137.655 75.4441 137.771 75.5876 137.983 75.645L139.742 76.1423L139.781 76.6779C138.408 76.6492 137.288 76.6397 136.418 76.6397C135.548 76.6397 134.524 76.6492 133.345 76.6779L133.297 76.1423L134.833 75.7024C135.046 75.6354 135.152 75.5015 135.162 75.3006C135.162 74.9276 135.171 74.392 135.171 73.6938V69.2368C135.171 67.8117 135.152 66.7596 135.123 66.0614L133.365 65.5928L133.297 65.1528V65.1432Z" fill="#024063"/>
<path d="M147.685 65.9562C147.636 68.9021 147.607 71.274 147.607 73.0817C147.607 73.9903 147.743 74.612 148.013 74.9563C148.284 75.3007 148.805 75.4728 149.569 75.4728C150.178 75.4728 150.97 75.3963 151.946 75.2337L152.023 75.8267C150.496 76.5823 149.134 76.9649 147.945 76.9649C146.97 76.9649 146.245 76.7066 145.771 76.1997C145.298 75.6928 145.056 74.9181 145.056 73.8947C145.056 72.2018 145.085 69.5333 145.153 65.8797L143.327 65.4397L143.249 64.9041L145.288 64.732L146.216 61.5662C146.718 61.4323 147.182 61.3079 147.598 61.1836L147.733 61.2792C147.704 62.3313 147.694 63.3164 147.694 64.2346V64.7224H151.675V65.9658H147.694L147.685 65.9562Z" fill="#024063"/>
<path d="M153.617 75.3485C153.782 75.3485 153.917 75.3963 154.023 75.5015C154.13 75.6067 154.178 75.7406 154.178 75.9032C154.178 76.0658 154.13 76.1997 154.023 76.3049C153.917 76.4101 153.782 76.4579 153.617 76.4579C153.444 76.4579 153.308 76.4101 153.202 76.3049C153.096 76.1997 153.047 76.0658 153.047 75.9032C153.047 75.7406 153.096 75.6067 153.202 75.5015C153.308 75.3963 153.444 75.3485 153.617 75.3485Z" fill="#024063"/>
<path d="M155.096 72.2209C155.647 72.1157 156.159 72.0105 156.632 71.8957L156.671 71.9244C156.652 72.3261 156.642 72.7756 156.642 73.2634V75.0615C156.642 75.4345 156.642 75.6928 156.642 75.8362C156.642 75.9223 156.69 75.9797 156.758 75.9988L157.309 76.1614V76.3527C156.883 76.3527 156.516 76.3432 156.197 76.3432C155.879 76.3432 155.521 76.3432 155.096 76.3527L155.077 76.1614L155.627 75.9988C155.695 75.9701 155.743 75.9223 155.743 75.8554C155.743 75.731 155.743 75.5302 155.743 75.2432V73.6842C155.743 73.273 155.743 72.9 155.724 72.5556L155.096 72.3835L155.077 72.2209H155.096ZM156.69 70.2411C156.69 70.4037 156.642 70.5376 156.536 70.6428C156.429 70.748 156.294 70.7958 156.13 70.7958C155.966 70.7958 155.84 70.748 155.743 70.6523C155.647 70.5567 155.598 70.4323 155.598 70.2698C155.598 70.0976 155.647 69.9733 155.753 69.868C155.859 69.7628 155.994 69.7246 156.159 69.7246C156.313 69.7246 156.439 69.7724 156.536 69.8585C156.632 69.9446 156.681 70.0785 156.681 70.2411H156.69Z" fill="#024063"/>
<path d="M157.83 72.2209C158.362 72.1253 158.855 72.0105 159.328 71.8957L159.376 71.9244V72.4696C159.927 72.087 160.439 71.8957 160.903 71.8957C161.348 71.8957 161.705 72.02 161.956 72.2687C162.208 72.5174 162.333 72.8713 162.333 73.3208V74.9659C162.333 75.358 162.333 75.645 162.333 75.8267C162.333 75.9128 162.382 75.9701 162.459 75.9893L162.981 76.1519V76.3432C162.575 76.3432 162.217 76.3336 161.898 76.3336C161.58 76.3336 161.241 76.3336 160.865 76.3432L160.845 76.1519L161.319 76.018C161.386 75.9893 161.435 75.9415 161.435 75.8745C161.435 75.8267 161.435 75.731 161.435 75.578V73.5408C161.435 73.1582 161.338 72.8808 161.154 72.7182C160.971 72.5557 160.7 72.4696 160.333 72.4696C160.014 72.4696 159.686 72.5557 159.347 72.7374V74.7746C159.347 75.1667 159.347 75.5206 159.347 75.8458C159.347 75.9319 159.386 75.9797 159.454 76.0084L159.947 76.1519V76.3432C159.57 76.3432 159.212 76.3336 158.903 76.3336C158.594 76.3336 158.227 76.3336 157.801 76.3432L157.782 76.1519L158.343 75.9893C158.41 75.9606 158.449 75.9128 158.449 75.8458C158.449 75.645 158.449 75.4537 158.449 75.2719V73.6747C158.449 73.2634 158.449 72.8904 158.43 72.5365L157.801 72.3644L157.782 72.2018L157.83 72.2209Z" fill="#024063"/>
</g>
<defs>
<clipPath id="clip0_67_928">
<rect width="163" height="83" fill="white"/>
</clipPath>
</defs>
</svg>
