<svg width="160" height="80" viewBox="0 0 201 103" fill="none" xmlns="http://www.w3.org/2000/svg">
<g clip-path="url(#clip0_67_904)">
<path d="M89.937 43.2391C89.5318 42.9305 89.0671 43.0611 88.6382 43.0611C84.4678 43.0492 80.2974 43.0255 76.1271 43.0611C75.3287 43.0611 75.0904 42.8118 75.1024 42.0522C75.1381 39.8802 75.0785 37.7081 75.1381 35.5361C75.2573 31.2988 78.534 28.2247 82.8116 28.2247C94.3456 28.2247 105.88 28.2366 117.414 28.2247C121.715 28.2247 124.813 24.8301 124.122 20.949C123.622 18.0885 121.048 15.7859 118.164 15.7384C114.935 15.6791 111.706 15.7384 108.477 15.7028C107.56 15.6909 107.417 16.142 107.429 16.8779C107.453 19.2754 107.417 21.673 107.464 24.0587C107.464 24.6877 107.321 24.9251 106.666 24.9251C102.424 24.9014 98.1705 24.9132 93.9286 24.9251C92.8086 24.9251 92.7609 24.0468 92.5941 23.3109C92.4868 22.848 92.5583 22.3376 92.5583 21.851C92.5583 15.3823 92.5583 8.90182 92.5583 2.43317C92.5583 0.902055 92.5583 0.902055 94.1431 0.902055C101.995 0.902055 109.848 0.866448 117.7 0.913924C126.04 0.97327 132.439 4.66456 136.466 11.8691C140.398 18.8956 140.041 26.1001 135.954 33.0317C134.179 36.0464 131.665 38.4203 128.602 40.1532C127.78 40.616 127.661 40.984 128.138 41.7911C131.903 48.1292 135.62 54.491 139.362 60.8529C139.517 61.114 139.648 61.3751 139.791 61.6362C139.541 62.0279 139.159 61.8736 138.861 61.8736C134.048 61.8855 129.246 61.8736 124.432 61.8973C123.705 61.8973 123.288 61.6718 122.919 61.0309C119.618 55.3812 116.258 49.7552 112.957 44.0937C112.54 43.3697 112.088 42.9424 111.194 43.0373C109.859 43.1798 108.501 42.8118 107.178 43.251C106.726 43.0136 106.237 43.0492 105.749 43.0611C100.804 43.0611 95.8589 43.0848 90.914 43.0848C90.5685 43.0848 90.2468 43.0848 89.925 43.2391H89.937Z" fill="#1AA7FF"/>
<path d="M89.937 43.2391C90.2468 43.0848 90.5804 43.0848 90.926 43.0848C95.8709 43.0848 100.816 43.0611 105.761 43.0611C106.249 43.0611 106.738 43.0136 107.19 43.251C102.686 53.8738 94.7627 60.4493 83.4074 62.562C69.9788 65.0664 56.9077 58.8114 50.1755 47.0491C41.0484 31.0852 47.7924 10.4092 64.6169 2.83672C72.2904 -0.617191 80.1426 -0.830834 88.1259 1.68541C88.96 1.94653 89.2698 2.32634 89.2579 3.264C89.1983 8.4864 89.234 13.7207 89.234 19.0855C87.8995 18.2191 86.7675 17.2814 85.433 16.6286C78.9153 13.4121 71.4444 14.4447 66.2136 19.3585C61.078 24.1773 59.4933 31.643 62.2458 38.1117C65.022 44.6634 71.5516 48.7345 78.7366 48.3547C83.1334 48.1173 86.839 46.3251 89.9489 43.251L89.937 43.2391Z" fill="#024063"/>
<path fill-rule="evenodd" clip-rule="evenodd" d="M74.3041 24.5453C73.2794 24.5453 72.4453 25.388 72.4453 26.4087V33.2335C72.4453 33.91 73.0053 34.4679 73.6845 34.4679H74.3041V42.4914C74.3041 42.8356 74.5901 43.1086 74.9237 43.1086H78.6532C78.9988 43.1086 79.2728 42.8237 79.2728 42.4914V40.5448H77.3544C76.8182 40.5448 76.3893 40.1057 76.3893 39.5834V35.5361C76.3893 35.002 76.8302 34.5747 77.3544 34.5747H79.2371C79.2371 34.1949 79.1894 33.8981 79.4873 33.6014C79.6422 33.4471 79.8447 33.3522 80.0831 33.3522C80.3809 33.3522 80.3809 33.8151 80.0831 33.8151C79.8805 33.8151 79.7018 33.9812 79.7018 34.1949V34.4679H79.8924C80.5716 34.4679 81.1316 33.91 81.1316 33.2335V26.4087C81.1316 25.388 80.2975 24.5572 79.2728 24.5453H78.2719L77.4974 25.3168L76.7825 24.6046L76.0676 25.3168L75.2931 24.5453H74.2922H74.3041ZM76.7944 19.584C77.9979 19.584 78.9749 20.5573 78.9749 21.7561C78.9749 22.9548 77.9979 23.9281 76.7944 23.9281C75.591 23.9281 74.6139 22.9548 74.6139 21.7561C74.6139 20.5573 75.591 19.584 76.7944 19.584Z" fill="#024063"/>
<path d="M83.2764 35.0257H77.3664C77.0923 35.0257 76.854 35.2512 76.854 35.5361V39.5834C76.854 39.8564 77.0804 40.0938 77.3664 40.0938H83.2764C83.5504 40.0938 83.7887 39.8683 83.7887 39.5834V35.5361C83.7887 35.2631 83.5623 35.0257 83.2764 35.0257Z" fill="#024063"/>
<path d="M18.4211 78.3835L17.5036 78.5141L16.3598 74.0394C15.4423 73.7427 14.3818 73.6003 13.1665 73.6003C10.7357 73.6003 8.84119 74.5023 7.47092 76.3064C6.11257 78.1105 5.42148 80.5793 5.42148 83.7246C5.42148 86.8699 6.10066 89.5761 7.47092 91.4158C8.84119 93.2555 10.7596 94.1694 13.226 94.1694C13.8099 94.1694 14.4414 94.1219 15.1206 94.027V89.7541C15.1206 89.2081 15.1206 88.7215 15.1206 88.2823C15.1206 87.8432 15.1087 87.4277 15.0967 87.0598C15.0967 86.775 14.9538 86.5969 14.6916 86.5257L12.4754 85.8966L12.4277 85.0895C13.9648 85.1251 15.6449 85.137 17.4441 85.137C19.2433 85.137 20.8876 85.1251 22.2221 85.0895L22.3174 85.8966L20.3752 86.4307C20.1131 86.502 19.9701 86.6681 19.9463 86.9174C19.9463 87.3447 19.9225 87.7957 19.9225 88.2348C19.9225 88.6859 19.9225 89.1725 19.9225 89.6829V94.7985L19.8033 94.9172C17.4679 95.4513 15.2516 95.7124 13.1426 95.7124C9.18673 95.7124 6.00534 94.7035 3.61035 92.6976C1.20345 90.6799 0 87.8788 0 84.2706C0 80.4369 1.20345 77.4458 3.61035 75.2738C6.01725 73.1018 9.29397 72.0217 13.4524 72.0217C15.4542 72.0217 17.4202 72.2472 19.3505 72.6863L19.4697 72.8288L18.4211 78.3835Z" fill="#1AA7FF"/>
<path d="M36.3776 93.8252C34.7809 94.9884 33.0413 95.5818 31.1587 95.5818C29.3952 95.5818 28.0726 95.1545 27.179 94.2881C26.2853 93.4216 25.8444 92.211 25.8444 90.6324V87.1904C25.8444 84.8759 25.8206 83.1667 25.7849 82.0748L23.4494 81.4695L23.3541 80.8048C26.0112 80.4012 28.3586 79.9858 30.3961 79.5585L30.5748 79.6891C30.5152 81.0422 30.4795 82.7157 30.4795 84.6979V89.6947C30.4795 90.9766 30.7297 91.9143 31.2421 92.4959C31.7425 93.0774 32.4575 93.3623 33.3868 93.3623C34.4235 93.3623 35.3648 93.1368 36.2227 92.6976V85.7898C36.2227 84.2706 36.1989 83.0243 36.1631 82.0392L33.9588 81.4695L33.8635 80.8048C36.4372 80.4012 38.7368 79.9858 40.7505 79.5585L40.9412 79.6891C40.8697 81.0778 40.822 82.7751 40.822 84.8047C40.822 88.7333 40.822 91.1309 40.8339 91.9974C40.8339 92.4246 40.8816 92.7807 40.9293 93.0418C40.9888 93.303 41.0842 93.5047 41.2391 93.6472C41.394 93.7896 41.6204 93.8845 41.9182 93.9439C42.2161 94.0032 42.6451 94.0388 43.1932 94.0507L43.2766 94.7628C41.7157 95.3088 40.3692 95.5699 39.2373 95.5699C37.7836 95.5699 36.8304 94.9884 36.3657 93.8133L36.3776 93.8252Z" fill="#1AA7FF"/>
<path d="M60.6492 94.0507C58.6355 95.0714 56.5265 95.5818 54.2983 95.5818C51.6531 95.5818 49.4845 94.929 47.8044 93.6234C46.1244 92.3178 45.2903 90.395 45.2903 87.855C45.2903 85.315 46.1005 83.4516 47.7091 81.9205C49.3177 80.3894 51.379 79.6297 53.8693 79.6297C56.0498 79.6297 57.7418 80.2113 58.9334 81.3864C60.1249 82.5614 60.7207 84.1756 60.7207 86.2408C60.7207 86.5494 60.7087 86.8818 60.673 87.2141H50.259C50.259 89.3862 50.7952 90.9529 51.8676 91.9024C52.9399 92.8519 54.6915 93.3267 57.1341 93.3267C58.3138 93.3267 59.4457 93.2199 60.5181 93.0181L60.6492 94.0388V94.0507ZM55.7639 85.6474V85.2557C55.7639 83.7839 55.5732 82.7276 55.2039 82.0867C54.8345 81.4457 54.2506 81.1253 53.488 81.1253C52.5706 81.1253 51.8318 81.5644 51.2837 82.4427C50.7356 83.321 50.4139 84.3893 50.3305 85.6355H55.7758L55.7639 85.6474Z" fill="#1AA7FF"/>
<path d="M72.5883 81.4576C71.9091 81.2914 71.1704 81.2083 70.372 81.2083C69.3831 81.2083 68.5728 81.3864 67.9532 81.7306C67.3336 82.0748 67.0119 82.5733 67.0119 83.2024C67.0119 83.689 67.143 84.0688 67.417 84.3299C67.6911 84.591 68.1558 84.8403 68.823 85.0658L71.4325 85.9797C72.9815 86.5138 74.1254 87.1548 74.8403 87.9025C75.5552 88.6503 75.9127 89.5286 75.9127 90.5375C75.9127 92.1279 75.2454 93.3623 73.899 94.2406C72.5525 95.1189 70.801 95.5581 68.6086 95.5581C66.7855 95.5581 64.9863 95.1901 63.2347 94.4424C63.6041 92.9944 63.902 91.5819 64.1522 90.2289L64.9863 90.0983L66.154 93.6353C66.8213 93.8608 67.6434 93.9795 68.6443 93.9795C69.5856 93.9795 70.3601 93.8015 70.944 93.4454C71.5278 93.0893 71.8257 92.5908 71.8257 91.9499C71.8257 91.4158 71.647 90.9766 71.3014 90.6087C70.944 90.2407 70.241 89.8847 69.1924 89.5286L67.2026 88.852C65.9276 88.4129 64.9744 87.8313 64.331 87.1192C63.6875 86.407 63.3658 85.5406 63.3658 84.5198C63.3658 82.9412 63.9854 81.7306 65.2365 80.8879C66.4876 80.0452 68.2034 79.6179 70.3959 79.6179C72.1951 79.6179 73.8275 79.879 75.2812 80.4131C74.9594 81.8255 74.6735 83.1667 74.4471 84.4367L73.5534 84.5673L72.5764 81.4576H72.5883Z" fill="#1AA7FF"/>
<path d="M84.5514 81.9798C84.4918 85.3507 84.456 88.2111 84.456 90.5612C84.456 91.6532 84.6229 92.4128 84.9565 92.8282C85.2901 93.2436 85.9335 93.4572 86.8987 93.4572C87.6374 93.4572 88.4358 93.4098 89.3056 93.3267L89.4367 94.3C87.7089 95.1427 86.1004 95.5699 84.599 95.5699C83.0977 95.5699 81.9062 95.2495 81.0721 94.6204C80.238 93.9914 79.821 93.03 79.821 91.76C79.821 89.5048 79.8567 86.229 79.9163 81.9086L77.712 81.3389L77.569 80.4606L80.2857 80.2113L81.8347 76.4014C82.7521 76.2352 83.5981 76.0809 84.3607 75.9266L84.5871 76.0453C84.5514 77.3509 84.5394 78.7396 84.5394 80.2113H89.103V81.9798H84.5394H84.5514Z" fill="#1AA7FF"/>
<path d="M97.4318 90.1339C97.4318 90.7867 97.4318 91.3683 97.4318 91.8905C97.4318 92.4128 97.4438 92.8757 97.4557 93.303C97.4557 93.6353 97.6106 93.8489 97.8846 93.932L99.6957 94.4661L99.7434 95.1664C98.4566 95.1308 97.1578 95.1189 95.8709 95.1189C94.5841 95.1189 93.2138 95.1308 91.8316 95.1664L91.772 94.4661L93.7738 93.8608C94.0479 93.7896 94.1909 93.6116 94.2147 93.3623C94.2147 92.935 94.2385 92.4484 94.2385 91.9143C94.2385 91.3802 94.2385 90.7867 94.2385 90.1339V76.9711C94.2385 76.4251 94.2385 75.9266 94.2385 75.4756C94.2385 75.0364 94.2266 74.6329 94.2147 74.2768C94.2147 73.9919 94.0717 73.8139 93.8215 73.7308L91.7959 73.1018L91.7601 72.4015C93.1661 72.449 94.5245 72.4608 95.8709 72.4608C96.1331 72.4608 96.4667 72.4608 96.8718 72.4371C97.2769 72.4133 97.7774 72.4015 98.3493 72.3777C98.9451 72.354 99.4336 72.3421 99.8268 72.3303C100.22 72.3303 100.53 72.3184 100.768 72.3184C103.27 72.3184 105.153 72.7813 106.404 73.7189C107.655 74.6447 108.287 76.0097 108.287 77.79C108.287 79.4042 107.858 80.7098 107 81.7068C106.142 82.7038 104.831 83.4753 103.068 84.0213C103.759 85.0658 104.402 86.0628 104.986 87.0361C105.57 88.0093 106.106 88.8876 106.619 89.6947C107.119 90.5018 107.584 91.214 108.001 91.8312C108.418 92.4484 108.811 92.935 109.168 93.2911C109.347 93.481 109.538 93.6353 109.717 93.7658C109.895 93.8964 110.098 94.0151 110.3 94.0982C110.503 94.1813 110.717 94.2643 110.932 94.3237C111.158 94.383 111.397 94.4542 111.671 94.5136L111.718 95.2257C110.932 95.3207 110.277 95.3682 109.752 95.3682C109.311 95.3682 108.918 95.3682 108.573 95.3326C108.239 95.3088 107.929 95.2732 107.667 95.202C107.405 95.1427 107.167 95.0596 106.952 94.9528C106.738 94.8459 106.523 94.7154 106.321 94.5611C105.868 94.2287 105.427 93.7421 104.986 93.113C104.545 92.484 104.104 91.76 103.628 90.9647C103.163 90.1695 102.675 89.3149 102.162 88.4129C101.662 87.5108 101.126 86.6207 100.566 85.7542C100.399 85.4931 100.256 85.2913 100.149 85.137C100.029 84.9827 99.9102 84.864 99.7672 84.7809C99.6243 84.6979 99.4694 84.6385 99.2906 84.6029C99.1119 84.5673 98.8736 84.5436 98.5876 84.5436L97.4437 84.5079V90.1339H97.4318ZM97.4318 83.2854C98.0991 83.321 98.7068 83.3329 99.2668 83.3329C101.149 83.3329 102.52 82.9412 103.401 82.146C104.271 81.3508 104.712 80.1045 104.712 78.4072C104.712 76.71 104.295 75.5587 103.461 74.799C102.627 74.0394 101.316 73.6596 99.5409 73.6596C99.2311 73.6596 98.9093 73.6596 98.5638 73.6952C98.2182 73.7189 97.837 73.7546 97.4437 73.7902V83.2854H97.4318Z" fill="#024063"/>
<path d="M125.588 93.9676C124.67 94.5373 123.717 94.9528 122.74 95.202C121.763 95.4513 120.857 95.5699 120.023 95.5699C117.628 95.5699 115.698 94.8934 114.232 93.5285C112.755 92.1754 112.028 90.2882 112.028 87.8788C112.028 85.4693 112.719 83.511 114.089 81.9917C115.46 80.4606 117.295 79.701 119.594 79.701C121.525 79.701 123.014 80.2707 124.086 81.4101C125.159 82.5495 125.695 84.1281 125.695 86.1459C125.695 86.4545 125.683 86.7631 125.647 87.0717H115.364C115.364 89.398 115.912 91.0597 117.009 92.0567C118.105 93.0537 119.821 93.5522 122.156 93.5522C123.205 93.5522 124.313 93.4572 125.492 93.2555L125.588 93.9558V93.9676ZM122.347 85.7186V85.232C122.347 83.7009 122.108 82.597 121.62 81.9324C121.131 81.2677 120.416 80.9472 119.463 80.9472C118.2 80.9472 117.235 81.4101 116.556 82.3478C115.889 83.2736 115.507 84.4011 115.424 85.7186H122.347Z" fill="#024063"/>
<path d="M127.423 81.3864L127.339 80.8404C129.162 80.4962 130.89 80.1164 132.523 79.701L132.689 79.8197V81.4101C134.357 80.2707 135.978 79.701 137.551 79.701C139.588 79.701 141.197 80.3775 142.4 81.7187C143.604 83.0599 144.2 84.8165 144.2 86.9649C144.2 89.6117 143.425 91.7125 141.888 93.2555C140.351 94.7985 138.158 95.5699 135.323 95.5699C134.477 95.5699 133.607 95.4869 132.701 95.3207V98.8696C132.701 99.9496 132.701 100.709 132.737 101.137C132.761 101.457 132.904 101.659 133.178 101.718L135.311 102.323L135.358 102.988C133.666 102.953 132.284 102.941 131.212 102.941C130.139 102.941 128.876 102.953 127.423 102.988L127.363 102.323L129.234 101.777C129.496 101.706 129.627 101.528 129.639 101.279C129.663 100.484 129.675 99.2968 129.675 97.6945V91.0953C129.675 86.3002 129.651 83.2736 129.615 82.0036L127.447 81.3864H127.423ZM132.689 93.8608C133.631 94.0626 134.548 94.1694 135.418 94.1694C137.217 94.1694 138.576 93.6115 139.481 92.484C140.387 91.3564 140.851 89.7422 140.851 87.6533C140.851 85.6711 140.422 84.1756 139.553 83.1786C138.683 82.1816 137.444 81.6712 135.811 81.6712C134.643 81.6712 133.595 81.9086 132.689 82.3834V93.8727V93.8608Z" fill="#024063"/>
<path d="M162.144 87.3091C162.144 89.7778 161.393 91.7718 159.904 93.2911C158.415 94.8103 156.508 95.5699 154.208 95.5699C151.909 95.5699 150.133 94.8578 148.751 93.4216C147.369 91.9855 146.666 90.1102 146.666 87.7957C146.666 85.4812 147.393 83.4753 148.847 81.9561C150.3 80.4369 152.219 79.6891 154.614 79.6891C156.877 79.6891 158.701 80.3894 160.071 81.7781C161.453 83.1667 162.144 85.0065 162.144 87.3091ZM150.002 87.4515C150.002 89.4692 150.384 91.119 151.134 92.389C151.897 93.659 153.017 94.3 154.506 94.3C155.9 94.3 156.961 93.7421 157.7 92.6145C158.426 91.4988 158.796 89.8372 158.796 87.6414C158.796 85.5762 158.415 83.9501 157.64 82.7513C156.877 81.5644 155.757 80.971 154.292 80.971C152.91 80.971 151.849 81.5051 151.099 82.5733C150.348 83.6415 149.99 85.2676 149.99 87.4396L150.002 87.4515Z" fill="#024063"/>
<path d="M164.372 80.8404C166.183 80.4962 167.911 80.1164 169.555 79.701L169.722 79.8197V81.7187C171.736 80.3775 173.702 79.701 175.632 79.701L175.716 79.7959C175.406 81.4101 175.096 83.0837 174.786 84.8047L174.131 84.9234C173.821 84.0095 173.535 83.2617 173.249 82.7038C172.963 82.146 172.522 81.873 171.915 81.873C171.307 81.873 170.592 82.146 169.71 82.6801V89.7066C169.71 91.392 169.71 92.6027 169.746 93.3267C169.746 93.6234 169.889 93.8014 170.151 93.8727L172.32 94.4899L172.367 95.1545C170.675 95.1189 169.293 95.107 168.221 95.107C167.148 95.107 165.885 95.1189 164.432 95.1545L164.372 94.4899L166.267 93.9439C166.529 93.8608 166.66 93.6946 166.672 93.4454C166.672 92.9825 166.684 92.3178 166.684 91.4514V85.9204C166.684 84.1519 166.66 82.8463 166.624 81.9798L164.456 81.3983L164.372 80.8523V80.8404Z" fill="#024063"/>
<path d="M182.114 81.8493C182.055 85.505 182.019 88.4485 182.019 90.6918C182.019 91.8193 182.186 92.5908 182.519 93.0181C182.853 93.4454 183.496 93.659 184.438 93.659C185.188 93.659 186.165 93.5641 187.369 93.3623L187.464 94.0982C185.582 95.0358 183.901 95.5106 182.436 95.5106C181.232 95.5106 180.339 95.1901 179.755 94.5611C179.171 93.932 178.873 92.9706 178.873 91.7006C178.873 89.5998 178.909 86.2883 178.992 81.7543L176.74 81.2083L176.645 80.5437L179.159 80.33L180.303 76.4014C180.923 76.2352 181.495 76.0809 182.007 75.9266L182.174 76.0453C182.138 77.3509 182.126 78.5734 182.126 79.7128V80.3182H187.035V81.8611H182.126L182.114 81.8493Z" fill="#024063"/>
<path d="M189.43 93.5047C189.633 93.5047 189.8 93.5641 189.931 93.6946C190.062 93.8252 190.121 93.9914 190.121 94.1931C190.121 94.3949 190.062 94.5611 189.931 94.6916C189.8 94.8222 189.633 94.8815 189.43 94.8815C189.216 94.8815 189.049 94.8222 188.918 94.6916C188.787 94.5611 188.727 94.3949 188.727 94.1931C188.727 93.9914 188.787 93.8252 188.918 93.6946C189.049 93.5641 189.216 93.5047 189.43 93.5047Z" fill="#024063"/>
<path d="M191.253 89.6235C191.932 89.493 192.564 89.3624 193.148 89.22L193.195 89.2556C193.172 89.7541 193.16 90.3119 193.16 90.9173V93.1487C193.16 93.6116 193.16 93.932 193.16 94.1101C193.16 94.2169 193.219 94.2881 193.303 94.3118L193.982 94.5136V94.751C193.458 94.751 193.005 94.7391 192.612 94.7391C192.218 94.7391 191.777 94.7391 191.253 94.751L191.229 94.5136L191.909 94.3118C191.992 94.2762 192.052 94.2169 192.052 94.1338C192.052 93.9795 192.052 93.7302 192.052 93.3742V91.4395C192.052 90.9291 192.052 90.4662 192.028 90.039L191.253 89.8253L191.229 89.6235H191.253ZM193.219 87.1666C193.219 87.3684 193.16 87.5346 193.029 87.6651C192.898 87.7957 192.731 87.855 192.528 87.855C192.326 87.855 192.171 87.7957 192.052 87.677C191.932 87.5583 191.873 87.404 191.873 87.2022C191.873 86.9886 191.932 86.8343 192.063 86.7037C192.195 86.5732 192.361 86.5257 192.564 86.5257C192.755 86.5257 192.909 86.585 193.029 86.6919C193.148 86.7987 193.207 86.9649 193.207 87.1666H193.219Z" fill="#024063"/>
<path d="M194.625 89.6235C195.281 89.5048 195.888 89.3624 196.472 89.22L196.532 89.2556V89.9321C197.211 89.4574 197.842 89.22 198.414 89.22C198.962 89.22 199.403 89.3743 199.713 89.6829C200.023 89.9915 200.178 90.4306 200.178 90.9885V93.03C200.178 93.5166 200.178 93.8727 200.178 94.0982C200.178 94.205 200.237 94.2762 200.333 94.3L200.976 94.5017V94.7391C200.476 94.7391 200.035 94.7272 199.642 94.7272C199.248 94.7272 198.831 94.7272 198.367 94.7391L198.343 94.5017L198.927 94.3356C199.01 94.3 199.07 94.2406 199.07 94.1575C199.07 94.0982 199.07 93.9795 199.07 93.7896V91.2615C199.07 90.7867 198.951 90.4425 198.724 90.2407C198.498 90.0389 198.164 89.9321 197.711 89.9321C197.318 89.9321 196.913 90.039 196.496 90.2645V92.7926C196.496 93.2792 196.496 93.7184 196.496 94.1219C196.496 94.2287 196.544 94.2881 196.627 94.3237L197.235 94.5017V94.7391C196.77 94.7391 196.329 94.7272 195.948 94.7272C195.567 94.7272 195.114 94.7272 194.59 94.7391L194.566 94.5017L195.257 94.3C195.34 94.2643 195.388 94.205 195.388 94.1219C195.388 93.8727 195.388 93.6353 195.388 93.4098V91.4276C195.388 90.9173 195.388 90.4544 195.364 90.0152L194.59 89.8016L194.566 89.5998L194.625 89.6235Z" fill="#024063"/>
</g>
<defs>
<clipPath id="clip0_67_904">
<rect width="201" height="103" fill="white"/>
</clipPath>
</defs>
</svg>
